<svg xmlns="http://www.w3.org/2000/svg" width="736" height="105" fill="none"><g fill-rule="evenodd" clip-path="url(#a)" clip-rule="evenodd"><path fill="#FF6C0C" d="M59.72 45.585C56.792 32.125 47.4 25.35 35.08 25.35 16.73 25.349 6 40.977 6 59.136 6 77.293 15.44 92.92 35.08 92.92c12.235 0 20.418-6.231 25.33-19.15l-10.51-5.06c-2.242 7.498-6.807 13.01-14.82 13.01-12.231 0-17.316-11.383-17.316-22.585 0-11.202 5.085-22.584 17.317-22.584 6.978 0 12.577 4.877 13.527 12.014l11.112-2.98Zm41.122 13.913c0-13.01-9.39-14.998-18.78-14.998-9.564 0-18.609 4.156-18.609 14.907l10.51.45c0-4.968 1.981-6.864 8.098-6.864 4.567 0 8.27 1.265 8.27 5.78v1.356c-2.67.994-7.581 1.897-11.372 2.71l-4.393.903C68.104 65.097 61.3 69.072 61.3 78.016c0 8.853 6.545 14.364 14.817 14.364 5.428 0 10.166-1.806 14.214-5.24 0 1.175.345 3.072 1.034 4.156h11.113c-.602-.994-1.636-2.981-1.636-7.68V59.499ZM90.336 74.946c0 5.87-6.289 8.4-11.2 8.4-3.79 0-6.805-2.258-6.805-5.692 0-4.336 3.274-5.51 7.237-6.324l5.772-1.265c1.894-.36 3.62-.903 4.996-1.627v6.508Zm18.037 16.35h10.51V25.17h-10.51v66.126Zm17.614-55.667v45.188c0 6.957 2.929 11.02 11.543 11.02 3.274 0 5.858-.54 8.357-1.084V81.72c-1.552.18-3.188.543-4.654.543-4.047 0-4.737-1.989-4.737-5.602V53.534h9.391v-7.949h-9.391v-20.99L125.987 35.63Zm63.69 35.43c0-16.351-6.376-26.559-20.935-26.559-14.129 0-22.314 10.298-22.314 23.938 0 13.643 8.185 23.942 22.314 23.942 11.888 0 18.178-5.962 21.452-11.202l-8.875-5.42c-1.034 1.534-4.308 6.504-12.577 6.504-5.685 0-11.114-4.427-11.287-11.203h32.222Zm-32.226-8.492c1.12-4.877 5.169-9.033 11.286-9.033 7.065 0 9.908 6.596 9.908 9.033h-21.194Zm76.478-5.056c-2.67-6.867-7.84-13.01-18.437-13.01-14.127 0-22.312 10.297-22.312 23.937 0 13.643 8.185 23.942 21.538 23.942 11.802 0 16.801-7.318 19.729-14.004l-8.961-4.968c-1.637 4.156-4.306 8.854-10.596 8.854-7.321 0-10.682-6.686-10.682-13.824 0-7.135 3.79-13.82 11.284-13.82 4.135 0 7.842 2.8 9.219 7.317l9.218-4.425Zm3.275 33.785h10.509v-23.49c0-5.6 2.413-12.645 10.339-12.645 5.342 0 7.753 2.709 7.753 9.033v27.102h10.509V61.032c0-13.28-8.528-16.532-15.936-16.532-5.946 0-10.168 2.44-12.493 5.602h-.172V25.168h-10.509v66.128Z"/><path fill="#666" d="M336.734 25.238c-.518-1.042-1.465-1.564-2.837-1.564-.757 0-1.382.213-1.872.64-.49.426-.876 1.116-1.156 2.072-.281.954-.477 2.204-.588 3.747-.113 1.542-.169 3.432-.169 5.665 0 2.381.077 4.307.231 5.776.153 1.47.393 2.61.715 3.418.322.807.729 1.352 1.219 1.631.491.28 1.058.418 1.703.418.532 0 1.03-.094 1.493-.286.462-.192.861-.574 1.198-1.146.336-.573.602-1.381.8-2.426.195-1.042.294-2.417.294-4.122h6.054c0 1.705-.126 3.323-.378 4.851-.253 1.528-.722 2.866-1.409 4.011-.688 1.147-1.655 2.043-2.901 2.69-1.247.646-2.867.97-4.857.97-2.27 0-4.077-.382-5.423-1.147-1.346-.764-2.376-1.865-3.091-3.306-.714-1.44-1.177-3.16-1.387-5.159-.21-1.999-.315-4.203-.315-6.613 0-2.38.105-4.578.315-6.591.21-2.014.673-3.74 1.387-5.182.715-1.439 1.745-2.564 3.091-3.372 1.346-.808 3.153-1.213 5.423-1.213 2.158 0 3.862.369 5.109 1.102 1.248.735 2.179 1.67 2.796 2.8a10.058 10.058 0 0 1 1.157 3.659c.154 1.31.23 2.536.23 3.683h-6.053c0-2.295-.26-3.961-.779-5.006M358.241 34.147c-.084-.691-.231-1.279-.441-1.765-.21-.484-.505-.851-.883-1.101s-.863-.376-1.451-.376c-.589 0-1.072.14-1.45.42-.38.28-.68.646-.905 1.102a5.634 5.634 0 0 0-.483 1.52 9.581 9.581 0 0 0-.147 1.677v.925h5.928a27.028 27.028 0 0 0-.168-2.402Zm-5.761 7.913c0 .706.049 1.39.148 2.05.098.661.259 1.25.483 1.764.224.514.518.926.883 1.235.364.308.813.463 1.345.463.981 0 1.696-.367 2.145-1.103.448-.734.756-1.851.925-3.35h5.213c-.112 2.764-.813 4.865-2.102 6.306-1.289 1.439-3.322 2.159-6.097 2.159-2.102 0-3.742-.367-4.919-1.102-1.177-.735-2.046-1.705-2.607-2.91-.56-1.205-.903-2.558-1.029-4.057a52.832 52.832 0 0 1-.19-4.497c0-1.587.105-3.114.316-4.585.21-1.47.63-2.778 1.261-3.924.631-1.147 1.534-2.057 2.711-2.734 1.178-.676 2.747-1.014 4.71-1.014 1.681 0 3.061.287 4.142.86a6.366 6.366 0 0 1 2.543 2.425c.617 1.044 1.037 2.308 1.261 3.792.225 1.484.337 3.137.337 4.96v1.367H352.48v1.895ZM372.956 27.378v2.778h.084c.616-1.176 1.416-2.036 2.398-2.58.98-.544 2.101-.816 3.363-.816 1.851 0 3.272.53 4.268 1.587.994 1.058 1.493 2.778 1.493 5.159v17.592h-5.803V34.74c0-1.234-.197-2.093-.589-2.58-.393-.483-1.023-.725-1.892-.725-2.046 0-3.071 1.307-3.071 3.924v15.739h-5.8v-23.72h5.549ZM395.911 20.59v6.79h3.365v4.144h-3.365v12.83c0 .94.133 1.608.4 2.006.265.396.82.594 1.662.594.223 0 .446-.007.671-.021.225-.015.435-.036.632-.067V51.1c-.647 0-1.27.022-1.872.066-.602.044-1.241.066-1.912.066-1.123 0-2.04-.081-2.754-.242-.716-.162-1.261-.485-1.641-.971-.378-.483-.638-1.124-.777-1.916-.14-.795-.21-1.793-.21-2.998v-13.58h-2.943v-4.145h2.943v-6.79h5.801ZM412.439 34.147c-.082-.69-.23-1.279-.44-1.765-.212-.483-.506-.85-.883-1.1-.379-.25-.863-.376-1.45-.376-.59 0-1.074.14-1.451.42a2.97 2.97 0 0 0-.906 1.102 5.633 5.633 0 0 0-.482 1.52 9.582 9.582 0 0 0-.148 1.677v.925h5.928a26.656 26.656 0 0 0-.168-2.403Zm-5.759 7.913c0 .706.048 1.39.148 2.05.097.661.258 1.25.482 1.764.225.514.52.926.884 1.235.364.308.812.463 1.346.463.981 0 1.695-.367 2.143-1.103.449-.734.756-1.851.924-3.35h5.214c-.111 2.764-.813 4.865-2.101 6.306-1.288 1.439-3.321 2.159-6.096 2.159-2.103 0-3.744-.367-4.921-1.102-1.178-.735-2.044-1.705-2.607-2.91-.56-1.205-.904-2.558-1.03-4.057a53.668 53.668 0 0 1-.189-4.497c0-1.587.105-3.114.315-4.585.212-1.47.632-2.778 1.262-3.924.632-1.147 1.535-2.057 2.712-2.734 1.178-.676 2.748-1.014 4.708-1.014 1.683 0 3.064.287 4.142.86a6.35 6.35 0 0 1 2.544 2.425c.617 1.044 1.038 2.308 1.261 3.792.225 1.484.337 3.137.337 4.96v1.367H406.68v1.895ZM427.156 27.378v3.175h.084c.59-1.148 1.303-2.067 2.143-2.756.843-.69 1.866-1.037 3.071-1.037a6.58 6.58 0 0 1 1.051.088v5.821c-.307-.03-.609-.05-.904-.066a16.914 16.914 0 0 0-.903-.022c-.506 0-1.011.072-1.514.22a3.985 3.985 0 0 0-1.388.726c-.421.34-.756.78-1.008 1.323-.253.546-.38 1.214-.38 2.008v14.24h-5.802v-23.72h5.55ZM444.85 31.523v-4.145h2.944v-2.69c0-1.057.141-1.954.421-2.69.28-.733.678-1.323 1.198-1.762.518-.442 1.157-.758 1.915-.949.755-.19 1.595-.286 2.522-.286 1.036 0 2.074.044 3.11.133v4.32a3.123 3.123 0 0 0-.587-.045h-.548c-.812 0-1.387.147-1.724.441-.335.295-.504.779-.504 1.455v2.073h3.363v4.145h-3.363v19.575h-5.803V31.523h-2.944ZM464.529 42.59c.058 1.03.19 1.91.4 2.646.211.735.527 1.307.946 1.718.421.413.981.617 1.683.617 1.176 0 1.989-.645 2.437-1.94.449-1.292.674-3.423.674-6.393 0-2.967-.225-5.098-.674-6.392-.448-1.294-1.261-1.94-2.437-1.94-.702 0-1.262.206-1.683.618-.419.41-.735.984-.946 1.718-.21.735-.342 1.618-.4 2.646a60.972 60.972 0 0 0-.084 3.35c0 1.207.027 2.324.084 3.352m-5.425-8.73c.309-1.558.813-2.858 1.514-3.902a6.792 6.792 0 0 1 2.754-2.38c1.134-.545 2.528-.817 4.184-.817 1.737-.028 3.182.214 4.331.73a6.157 6.157 0 0 1 2.733 2.357c.672 1.057 1.148 2.367 1.428 3.923.28 1.56.421 3.38.421 5.467 0 2.03-.153 3.823-.462 5.38-.309 1.558-.814 2.859-1.513 3.9a6.332 6.332 0 0 1-2.755 2.317c-1.134.499-2.53.749-4.183.749-1.74.028-3.182-.2-4.332-.682a5.928 5.928 0 0 1-2.733-2.295c-.671-1.042-1.15-2.35-1.429-3.923-.28-1.572-.42-3.388-.42-5.446 0-2.028.155-3.82.462-5.379M485.555 27.378v3.175h.084c.59-1.148 1.303-2.067 2.143-2.756.843-.69 1.866-1.037 3.07-1.037a6.603 6.603 0 0 1 1.052.088v5.821c-.308-.03-.609-.05-.904-.066a16.914 16.914 0 0 0-.903-.022 5.33 5.33 0 0 0-1.514.22 3.99 3.99 0 0 0-1.389.726c-.42.34-.755.78-1.008 1.323-.252.546-.379 1.214-.379 2.008v14.24h-5.802v-23.72h5.55ZM521.125 24.82h-6.56V51.1h-6.055V24.82h-6.559v-5.204h19.174v5.204ZM531.604 34.147c-.084-.69-.232-1.279-.44-1.765-.212-.483-.506-.85-.885-1.1-.377-.25-.861-.376-1.45-.376-.588 0-1.072.14-1.452.42-.377.279-.678.646-.903 1.102a5.564 5.564 0 0 0-.482 1.52 9.582 9.582 0 0 0-.148 1.677v.925h5.928a26.656 26.656 0 0 0-.168-2.403Zm-5.767 7.913c0 .706.048 1.39.147 2.05.097.661.257 1.25.482 1.764.226.514.519.926.883 1.235.364.308.812.463 1.346.463.981 0 1.697-.367 2.145-1.103.449-.734.756-1.851.924-3.35h5.214c-.111 2.764-.813 4.865-2.101 6.306-1.291 1.439-3.323 2.159-6.098 2.159-2.101 0-3.742-.367-4.92-1.102-1.177-.735-2.046-1.705-2.606-2.91s-.904-2.558-1.03-4.057a53.67 53.67 0 0 1-.19-4.497c0-1.587.106-3.114.316-4.585.211-1.47.63-2.778 1.262-3.924.629-1.147 1.535-2.057 2.712-2.734 1.177-.676 2.746-1.014 4.708-1.014 1.683 0 3.062.287 4.142.86a6.36 6.36 0 0 1 2.543 2.425c.618 1.044 1.036 2.308 1.262 3.792.225 1.484.337 3.137.337 4.96v1.367h-11.478v1.895ZM551.541 34.212a6.082 6.082 0 0 0-.379-1.521c-.183-.455-.44-.823-.777-1.101-.337-.28-.786-.42-1.345-.42-.702 0-1.277.17-1.725.507-.449.339-.785.837-1.008 1.499-.225.661-.38 1.499-.464 2.514a44.224 44.224 0 0 0-.126 3.592c0 1.47.042 2.727.126 3.769.084 1.044.239 1.905.464 2.58.223.677.539 1.169.944 1.477.407.309.934.463 1.578.463.982 0 1.695-.44 2.144-1.323.448-.88.674-2.292.674-4.233h5.55c0 3.116-.667 5.49-1.998 7.121-1.331 1.633-3.54 2.447-6.623 2.447-1.457 0-2.726-.183-3.804-.55-1.081-.368-1.975-1.028-2.691-1.985-.715-.955-1.255-2.234-1.62-3.836-.364-1.602-.545-3.592-.545-5.974 0-2.44.223-4.46.672-6.062.448-1.602 1.08-2.88 1.893-3.837.813-.953 1.779-1.623 2.901-2.005 1.12-.382 2.355-.574 3.7-.574 2.691 0 4.715.824 6.075 2.47 1.36 1.646 2.04 3.879 2.04 6.702h-5.55c0-.59-.037-1.161-.106-1.72M566.446 19.617v10.186h.085c1.122-2.028 2.958-3.043 5.508-3.043 1.851 0 3.273.53 4.268 1.588.994 1.057 1.493 2.778 1.493 5.157V51.1h-5.803v-16.36c0-1.234-.196-2.093-.587-2.578-.395-.485-1.024-.727-1.893-.727-2.047 0-3.071 1.307-3.071 3.924v15.74h-5.801V19.618h5.801ZM587.638 27.378v2.778h.084c.616-1.176 1.415-2.036 2.398-2.58.979-.544 2.102-.816 3.363-.816 1.851 0 3.272.53 4.268 1.587.994 1.058 1.493 2.778 1.493 5.159v17.592h-5.803V34.74c0-1.234-.196-2.093-.59-2.58-.391-.483-1.023-.725-1.891-.725-2.046 0-3.07 1.307-3.07 3.924v15.739h-5.8v-23.72h5.548ZM608.663 42.59c.057 1.03.19 1.91.4 2.646.21.735.526 1.307.945 1.718.422.413.981.618 1.683.618 1.177 0 1.989-.646 2.438-1.94.448-1.292.674-3.423.674-6.393 0-2.968-.226-5.099-.674-6.392-.449-1.295-1.261-1.941-2.438-1.941-.702 0-1.261.206-1.683.618-.419.41-.735.985-.945 1.718-.21.735-.343 1.618-.4 2.646a63.129 63.129 0 0 0-.082 3.35c0 1.207.027 2.324.082 3.353m-5.422-8.732c.308-1.557.813-2.858 1.512-3.901a6.799 6.799 0 0 1 2.754-2.38c1.137-.545 2.531-.817 4.185-.817 1.736-.028 3.181.214 4.33.73a6.141 6.141 0 0 1 2.733 2.357c.672 1.057 1.151 2.367 1.431 3.923.279 1.56.418 3.38.418 5.467 0 2.03-.153 3.823-.461 5.38-.31 1.558-.812 2.859-1.514 3.9a6.33 6.33 0 0 1-2.754 2.317c-1.135.499-2.531.749-4.183.749-1.738.028-3.183-.2-4.332-.682a5.913 5.913 0 0 1-2.731-2.295c-.674-1.042-1.15-2.35-1.43-3.923-.282-1.572-.421-3.388-.421-5.446 0-2.028.154-3.82.463-5.379M624.346 51.099h5.803V19.617h-5.803v31.482ZM639.781 42.59c.057 1.03.19 1.91.4 2.646.211.735.526 1.307.946 1.718.421.413.981.617 1.683.617 1.176 0 1.989-.645 2.437-1.94.449-1.292.674-3.423.674-6.393 0-2.967-.225-5.098-.674-6.392-.448-1.294-1.261-1.94-2.437-1.94-.702 0-1.262.206-1.683.618-.42.41-.735.984-.946 1.718-.21.735-.343 1.618-.4 2.646a63.133 63.133 0 0 0-.082 3.35c0 1.207.027 2.324.082 3.352m-5.421-8.73c.307-1.558.813-2.858 1.512-3.902a6.792 6.792 0 0 1 2.754-2.38c1.136-.545 2.53-.817 4.184-.817 1.737-.028 3.182.214 4.331.73a6.146 6.146 0 0 1 2.733 2.357c.672 1.057 1.15 2.367 1.431 3.923.279 1.56.418 3.38.418 5.467 0 2.03-.153 3.823-.462 5.38-.309 1.558-.811 2.859-1.513 3.9a6.326 6.326 0 0 1-2.755 2.317c-1.134.499-2.53.749-4.183.749-1.738.028-3.182-.2-4.332-.682a5.906 5.906 0 0 1-2.73-2.295c-.674-1.042-1.151-2.35-1.43-3.923-.282-1.572-.422-3.388-.422-5.446 0-2.028.155-3.82.464-5.379M660.699 42.324c.069.735.208 1.39.419 1.962.21.573.505 1.03.884 1.367.378.339.875.507 1.491.507.617 0 1.129-.168 1.535-.507.407-.337.728-.8.966-1.389.239-.589.407-1.3.506-2.139.099-.837.148-1.755.148-2.755 0-2.88-.218-4.923-.654-6.128-.433-1.205-1.225-1.808-2.375-1.808-.644 0-1.162.147-1.555.441-.393.295-.7.771-.925 1.432-.226.662-.371 1.544-.44 2.646a64.388 64.388 0 0 0-.106 4.035c0 .823.035 1.602.106 2.336Zm11.498 7.583c0 3.059-.722 5.35-2.167 6.879-1.442 1.53-3.861 2.293-7.251 2.293-2.468 0-4.367-.551-5.698-1.654-1.331-1.1-1.996-2.666-1.996-4.696h5.55c0 .764.293 1.367.883 1.809.28.205.581.366.903.485.321.118.665.176 1.03.176 1.178 0 2.004-.396 2.481-1.19.477-.794.715-1.778.715-2.954v-3.13h-.085a7.047 7.047 0 0 1-2.164 2.115c-.857.53-1.746.794-2.67.794-2.3 0-4.03-.918-5.192-2.755-1.165-1.837-1.746-4.917-1.746-9.237 0-1.382.078-2.792.231-4.233.154-1.44.477-2.741.967-3.902.491-1.161 1.204-2.11 2.143-2.845.939-.732 2.194-1.102 3.765-1.102.813 0 1.654.236 2.523.707.868.47 1.584 1.322 2.143 2.557h.085v-2.646h5.55v22.53ZM678.627 54.317c1.065 0 1.827-.294 2.291-.88.463-.59.735-1.367.819-2.339l-6.349-23.72h6.056l3.362 16.403h.086l2.943-16.402h5.801l-5.466 22.133c-.503 1.967-.988 3.564-1.449 4.782-.464 1.221-1.011 2.162-1.641 2.823a4.477 4.477 0 0 1-2.269 1.3c-.884.206-1.999.309-3.344.309h-2.354v-4.541a8.77 8.77 0 0 0 1.514.132M714.744 29.494l.714 1.06 1.093-.972c.674-.587 1.158-1.168 1.45-1.74.295-.574.443-1.14.443-1.699 0-.851-.247-1.506-.735-1.961-.493-.456-1.129-.684-1.914-.684-.729 0-1.34.22-1.83.661-.491.442-.735 1.073-.735 1.897 0 .88.505 2.027 1.514 3.438m-3 10.448a5.693 5.693 0 0 0-.651 2.691c0 .47.091.955.272 1.454a4.006 4.006 0 0 0 2.125 2.315c.53.25 1.135.376 1.807.376 1.598 0 2.901-.663 3.91-1.986l-5.045-7.495c-1.178.942-1.984 1.824-2.418 2.645m11.701-1.586c.196-.912.295-1.704.295-2.382h5.214c0 1.706-.289 3.345-.861 4.917a20.87 20.87 0 0 1-2.209 4.388l3.952 5.818h-6.433l-1.682-2.425c-.757.942-1.773 1.662-3.048 2.162-1.275.499-2.669.748-4.183.748-1.879 0-3.42-.287-4.624-.859-1.207-.574-2.146-1.316-2.818-2.226a8.082 8.082 0 0 1-1.387-2.955c-.253-1.058-.379-2.028-.379-2.909 0-1.853.539-3.52 1.619-5.006 1.079-1.483 2.557-2.843 4.435-4.078l-1.052-1.63a24.121 24.121 0 0 1-1.029-1.72 8.57 8.57 0 0 1-.61-1.41 7.67 7.67 0 0 1-.294-1.28 9.476 9.476 0 0 1-.084-1.279c0-1.027.19-1.945.567-2.755a6.1 6.1 0 0 1 1.577-2.072c.673-.573 1.479-1.014 2.418-1.322.939-.31 1.968-.464 3.091-.464 1.288 0 2.402.17 3.341.508.939.338 1.718.808 2.335 1.41a5.641 5.641 0 0 1 1.367 2.094c.292.795.44 1.647.44 2.557 0 1.588-.427 3.013-1.282 4.277-.855 1.265-2.165 2.557-3.932 3.881l4.5 6.392c.307-.675.561-1.468.756-2.38M333.812 63.707l4.289 22.222h.084l4.331-22.222h8.955V95.19h-5.55V70.058h-.084l-5.34 25.131h-4.709l-5.34-25.131h-.084v25.131h-5.55V63.707h8.998ZM365.347 84.1c-.45.19-.855.33-1.219.418-1.178.265-2.019.707-2.523 1.323-.505.618-.757 1.455-.757 2.514 0 .91.168 1.69.505 2.337.336.647.897.969 1.681.969.393 0 .799-.066 1.22-.198.42-.132.805-.345 1.157-.639.349-.294.636-.676.861-1.146.223-.47.336-1.03.336-1.676v-4.674a5.122 5.122 0 0 1-1.261.772Zm-9.332-5.93c0-1.382.21-2.534.631-3.462.42-.925.987-1.675 1.702-2.248.715-.573 1.556-.984 2.523-1.234a12.374 12.374 0 0 1 3.091-.376c1.737 0 3.138.178 4.203.53 1.066.353 1.893.853 2.482 1.5a5.108 5.108 0 0 1 1.198 2.314c.21.896.314 1.874.314 2.932v12.478c0 1.117.049 1.984.148 2.601.099.618.288 1.279.568 1.984h-5.55a5.231 5.231 0 0 1-.442-1.213 56.068 56.068 0 0 1-.273-1.257h-.084c-.672 1.236-1.45 2.036-2.334 2.404-.883.367-2.024.55-3.426.55-1.009 0-1.864-.183-2.565-.55a4.414 4.414 0 0 1-1.682-1.52 7.005 7.005 0 0 1-.925-2.184 10.164 10.164 0 0 1-.294-2.402c0-1.118.112-2.08.336-2.889.225-.808.569-1.499 1.03-2.072a5.684 5.684 0 0 1 1.766-1.433c.716-.382 1.577-.72 2.586-1.015l3.28-.924c.869-.234 1.471-.56 1.808-.97.336-.412.504-1.014.504-1.808 0-.911-.203-1.624-.61-2.139-.406-.513-1.101-.772-2.081-.772-.898 0-1.57.28-2.018.839-.448.558-.672 1.308-.672 2.248v.662h-5.214v-.573ZM382.244 71.469v2.777h.084c.617-1.175 1.416-2.036 2.398-2.58.98-.543 2.102-.816 3.362-.816 1.852 0 3.274.53 4.269 1.588.994 1.058 1.493 2.777 1.493 5.158v17.592h-5.804V78.831c0-1.235-.195-2.094-.589-2.58-.391-.484-1.022-.726-1.89-.726-2.046 0-3.071 1.307-3.071 3.924v15.74h-5.801v-23.72h5.549ZM407.429 84.1c-.448.19-.855.33-1.219.418-1.177.265-2.017.707-2.523 1.323-.503.618-.756 1.455-.756 2.514 0 .91.169 1.69.504 2.337.336.647.897.969 1.682.969.392 0 .799-.066 1.219-.198a3.345 3.345 0 0 0 1.157-.639c.351-.294.637-.676.862-1.146.223-.47.336-1.03.336-1.676v-4.674a5.11 5.11 0 0 1-1.262.772Zm-9.332-5.93c0-1.382.21-2.534.632-3.462.42-.925.987-1.675 1.703-2.248.714-.573 1.554-.984 2.523-1.234a12.352 12.352 0 0 1 3.089-.376c1.739 0 3.139.178 4.204.53 1.067.353 1.893.853 2.481 1.5a5.07 5.07 0 0 1 1.198 2.314c.211.896.316 1.874.316 2.932v12.478c0 1.117.048 1.984.147 2.601.1.618.287 1.279.569 1.984h-5.55a5.233 5.233 0 0 1-.443-1.213 46.777 46.777 0 0 1-.273-1.257h-.084c-.672 1.236-1.449 2.036-2.333 2.404-.883.367-2.026.55-3.427.55-1.009 0-1.865-.183-2.564-.55a4.406 4.406 0 0 1-1.682-1.52 6.958 6.958 0 0 1-.925-2.184 10.063 10.063 0 0 1-.295-2.402c0-1.118.111-2.08.337-2.889.223-.808.567-1.499 1.029-2.072a5.688 5.688 0 0 1 1.767-1.433c.714-.382 1.575-.72 2.586-1.015l3.278-.924c.87-.234 1.473-.56 1.809-.97.335-.412.504-1.014.504-1.808 0-.911-.203-1.624-.609-2.139-.406-.513-1.101-.772-2.082-.772-.897 0-1.569.28-2.017.839-.449.558-.674 1.308-.674 2.248v.662h-5.214v-.573ZM424.227 86.416c.069.735.21 1.39.421 1.961.211.573.505 1.03.882 1.367.38.34.876.508 1.493.508.617 0 1.129-.169 1.536-.508.406-.337.727-.8.966-1.388.238-.59.406-1.301.505-2.14a24.02 24.02 0 0 0 .148-2.754c0-2.88-.22-4.924-.653-6.129-.434-1.205-1.226-1.808-2.375-1.808-.645 0-1.165.147-1.556.441-.393.295-.702.771-.925 1.433-.225.661-.373 1.543-.442 2.645a65.963 65.963 0 0 0-.106 4.035c0 .823.037 1.602.106 2.337Zm11.499 7.582c0 3.058-.722 5.35-2.167 6.878-1.444 1.529-3.862 2.294-7.251 2.294-2.468 0-4.367-.552-5.699-1.654-1.33-1.101-1.995-2.667-1.995-4.697h5.547c0 .765.296 1.367.886 1.81.279.204.581.366.903.484.321.118.665.177 1.03.177 1.176 0 2.004-.397 2.479-1.19.477-.794.717-1.779.717-2.955v-3.13h-.085a7.052 7.052 0 0 1-2.166 2.115c-.855.53-1.744.795-2.67.795-2.298 0-4.028-.918-5.193-2.755-1.162-1.837-1.744-4.918-1.744-9.238 0-1.381.077-2.792.232-4.233.154-1.44.476-2.741.967-3.902s1.204-2.11 2.143-2.844c.939-.733 2.194-1.103 3.763-1.103.813 0 1.655.237 2.523.707.87.47 1.583 1.323 2.145 2.557h.085V71.47h5.55v22.529ZM450.949 78.236c-.084-.69-.232-1.279-.442-1.765-.21-.484-.504-.85-.883-1.1-.379-.25-.86-.376-1.45-.376-.588 0-1.072.14-1.451.42-.379.279-.681.646-.904 1.102a5.635 5.635 0 0 0-.484 1.52 9.582 9.582 0 0 0-.148 1.677v.924h5.93a27.412 27.412 0 0 0-.168-2.402Zm-5.763 7.914c0 .705.048 1.39.147 2.05.1.66.259 1.25.484 1.763.224.514.519.926.883 1.236.364.307.812.462 1.346.462.981 0 1.695-.366 2.145-1.102.447-.735.756-1.852.924-3.351h5.214c-.111 2.764-.813 4.866-2.103 6.306-1.289 1.439-3.321 2.16-6.096 2.16-2.101 0-3.742-.368-4.919-1.103-1.178-.735-2.047-1.705-2.607-2.91-.562-1.205-.904-2.557-1.03-4.056-.126-1.5-.19-2.999-.19-4.498 0-1.587.106-3.114.316-4.585.209-1.47.63-2.778 1.262-3.924.629-1.146 1.533-2.056 2.712-2.734 1.178-.676 2.746-1.014 4.708-1.014 1.683 0 3.062.288 4.142.86a6.369 6.369 0 0 1 2.544 2.426c.617 1.043 1.036 2.307 1.261 3.791.223 1.485.337 3.138.337 4.96v1.367h-11.48v1.896ZM465.672 71.469v2.425h.084c.729-1.088 1.548-1.867 2.459-2.337.91-.47 1.997-.707 3.258-.707 1.346 0 2.475.325 3.386.972.909.646 1.521 1.586 1.828 2.821h.084c.449-1.265 1.171-2.211 2.167-2.844.994-.633 2.177-.949 3.552-.949 1.933 0 3.357.61 4.269 1.83.908 1.22 1.366 2.977 1.366 5.269v17.24h-5.804V78.61c0-.998-.175-1.762-.526-2.293-.349-.528-.93-.792-1.743-.792-.926 0-1.662.323-2.209.969-.546.648-.82 1.677-.82 3.087v15.607h-5.803V78.61c0-.998-.175-1.762-.524-2.293-.351-.528-.933-.792-1.745-.792-.924 0-1.662.323-2.207.969-.548.648-.822 1.677-.822 3.087v15.607h-5.8v-23.72h5.55ZM503.132 78.236c-.084-.69-.232-1.279-.44-1.765-.212-.484-.506-.85-.885-1.1-.377-.25-.861-.376-1.45-.376-.588 0-1.072.14-1.452.42-.377.279-.678.646-.903 1.102a5.564 5.564 0 0 0-.482 1.52 9.582 9.582 0 0 0-.148 1.677v.924h5.928a26.656 26.656 0 0 0-.168-2.402Zm-5.759 7.914c0 .705.048 1.39.148 2.05.097.66.256 1.25.481 1.763.226.514.519.926.883 1.236.364.307.812.462 1.346.462.981 0 1.697-.366 2.145-1.102.449-.735.756-1.852.924-3.351h5.214c-.111 2.764-.813 4.866-2.101 6.306-1.291 1.439-3.323 2.16-6.098 2.16-2.101 0-3.742-.368-4.919-1.103-1.178-.735-2.047-1.705-2.607-2.91s-.904-2.557-1.03-4.056c-.126-1.5-.19-2.999-.19-4.498 0-1.587.106-3.114.316-4.585.212-1.47.63-2.778 1.262-3.924.629-1.146 1.535-2.056 2.712-2.734 1.178-.676 2.746-1.014 4.708-1.014 1.683 0 3.062.288 4.142.86a6.369 6.369 0 0 1 2.544 2.426c.617 1.043 1.036 2.307 1.261 3.791.225 1.485.337 3.138.337 4.96v1.367h-11.478v1.896ZM517.849 71.469v2.777h.084c.617-1.175 1.415-2.036 2.397-2.58.981-.543 2.101-.816 3.362-.816 1.851 0 3.274.53 4.268 1.588.997 1.058 1.494 2.777 1.494 5.158v17.592h-5.802V78.831c0-1.235-.198-2.094-.589-2.58-.394-.484-1.024-.726-1.894-.726-2.044 0-3.068 1.307-3.068 3.924v15.74h-5.802v-23.72h5.55ZM540.805 64.678v6.79h3.362v4.145h-3.362v12.83c0 .94.132 1.608.398 2.006.267.396.821.594 1.661.594.223 0 .448-.007.672-.021.225-.015.436-.036.631-.067v4.233c-.644 0-1.27.022-1.871.066a26.29 26.29 0 0 1-1.913.066c-1.122 0-2.04-.081-2.753-.242-.716-.162-1.262-.485-1.641-.971-.379-.483-.638-1.124-.776-1.916-.142-.795-.212-1.793-.212-2.998v-13.58h-2.943v-4.145h2.943v-6.79h5.804ZM574.068 68.911h-10.722v7.407h10.09v5.203h-10.09v8.465h11.141v5.203h-17.195V63.707h16.776v5.204ZM583.584 89.171c.38 1.307 1.198 1.961 2.46 1.961 1.289 0 2.125-.654 2.502-1.961.378-1.307.568-3.255.568-5.843 0-2.585-.19-4.533-.568-5.842-.377-1.307-1.213-1.96-2.502-1.96-1.262 0-2.08.653-2.46 1.96-.377 1.31-.566 3.257-.566 5.843 0 2.587.189 4.535.566 5.842Zm5.699 3.505c-.645 1.118-1.366 1.896-2.165 2.338-.8.44-1.788.66-2.965.66-2.384 0-4.135-.954-5.256-2.866-1.122-1.91-1.681-5.07-1.681-9.48 0-4.408.559-7.59 1.681-9.544 1.121-1.955 2.872-2.933 5.256-2.933 1.093 0 2.024.236 2.797.707.771.47 1.464 1.174 2.08 2.115h.085v-9.965h5.803V95.19h-5.551v-2.513h-.084ZM610.725 92.411c-.616 1.176-1.416 2.014-2.399 2.515-.981.498-2.101.748-3.362.748-1.851 0-3.272-.506-4.268-1.522-.994-1.013-1.494-2.71-1.494-5.091V71.47h5.804v16.356c0 1.235.196 2.094.59 2.58.391.484 1.021.727 1.891.727 2.047 0 3.07-1.308 3.07-3.925V71.47h5.801v23.72h-5.549V92.41h-.084ZM631.434 78.303a6.305 6.305 0 0 0-.38-1.522 2.718 2.718 0 0 0-.776-1.101c-.338-.28-.786-.42-1.346-.42-.701 0-1.276.17-1.725.507-.448.34-.784.838-1.008 1.499-.225.661-.379 1.5-.463 2.514a44.225 44.225 0 0 0-.126 3.592c0 1.47.042 2.727.126 3.77.084 1.044.238 1.904.463 2.58.224.676.54 1.168.945 1.477.406.308.931.462 1.577.462.982 0 1.696-.44 2.144-1.323.449-.88.674-2.291.674-4.232h5.548c0 3.115-.665 5.49-1.995 7.12-1.334 1.633-3.541 2.447-6.623 2.447-1.458 0-2.727-.183-3.805-.55-1.08-.368-1.977-1.028-2.691-1.984-.716-.956-1.255-2.234-1.619-3.836-.364-1.602-.546-3.593-.546-5.975 0-2.44.224-4.46.672-6.062.449-1.602 1.078-2.88 1.893-3.837.813-.953 1.779-1.622 2.899-2.004 1.123-.382 2.357-.575 3.702-.575 2.691 0 4.715.825 6.076 2.47 1.357 1.647 2.037 3.88 2.037 6.702h-5.548c0-.589-.036-1.16-.105-1.72M649.822 84.1a7.89 7.89 0 0 1-1.22.418c-1.177.265-2.019.707-2.523 1.323-.504.618-.757 1.455-.757 2.514 0 .91.168 1.69.505 2.337.337.647.897.969 1.682.969.392 0 .799-.066 1.219-.198.42-.132.805-.345 1.157-.639.349-.294.635-.676.86-1.146.226-.47.338-1.03.338-1.676v-4.674a5.16 5.16 0 0 1-1.261.772Zm-9.333-5.93c0-1.382.211-2.534.63-3.462.42-.925.99-1.675 1.703-2.248.716-.573 1.556-.984 2.523-1.234a12.38 12.38 0 0 1 3.091-.376c1.737 0 3.139.178 4.205.53 1.064.353 1.891.853 2.48 1.5a5.108 5.108 0 0 1 1.198 2.314c.211.896.316 1.874.316 2.932v12.478c0 1.117.048 1.984.148 2.601.097.618.286 1.279.566 1.984h-5.55a5.093 5.093 0 0 1-.44-1.213c-.099-.426-.19-.844-.274-1.257h-.084c-.674 1.236-1.451 2.036-2.333 2.404-.885.367-2.026.55-3.429.55-1.008 0-1.863-.183-2.564-.55a4.386 4.386 0 0 1-1.68-1.52 6.962 6.962 0 0 1-.927-2.184 10.218 10.218 0 0 1-.295-2.402c0-1.118.114-2.08.337-2.889.225-.808.569-1.499 1.029-2.072a5.723 5.723 0 0 1 1.767-1.433c.716-.382 1.578-.72 2.586-1.015l3.28-.924c.868-.234 1.473-.56 1.807-.97.338-.412.506-1.014.506-1.808 0-.911-.205-1.624-.61-2.139-.407-.513-1.1-.772-2.081-.772-.897 0-1.571.28-2.019.839-.449.558-.672 1.308-.672 2.248v.662h-5.214v-.573ZM668.238 64.678v6.79h3.363v4.145h-3.363v12.83c0 .94.133 1.608.398 2.006.268.396.822.594 1.662.594.223 0 .448-.007.671-.021.225-.015.437-.036.632-.067v4.233c-.645 0-1.27.022-1.872.066-.602.044-1.241.066-1.912.066-1.123 0-2.04-.081-2.754-.242-.716-.162-1.261-.485-1.641-.971-.378-.483-.638-1.124-.776-1.916-.141-.795-.211-1.793-.211-2.998v-13.58h-2.943v-4.145h2.943v-6.79h5.803ZM674.254 95.19h5.801V71.47h-5.801v23.72Zm0-26.632h5.801v-5.204h-5.801v5.204ZM689.675 86.68c.055 1.029.19 1.91.398 2.645.21.735.526 1.307.948 1.719.419.413.981.617 1.681.617 1.178 0 1.989-.645 2.439-1.94.447-1.292.672-3.423.672-6.393 0-2.968-.225-5.099-.672-6.392-.45-1.294-1.261-1.94-2.439-1.94-.7 0-1.262.206-1.681.617-.422.41-.738.985-.948 1.719-.208.735-.343 1.618-.398 2.645a60.968 60.968 0 0 0-.084 3.351c0 1.206.027 2.323.084 3.352m-5.423-8.731c.307-1.558.813-2.858 1.514-3.901a6.767 6.767 0 0 1 2.754-2.381c1.134-.544 2.528-.817 4.182-.817 1.739-.028 3.182.214 4.331.73a6.135 6.135 0 0 1 2.733 2.358c.674 1.057 1.15 2.366 1.43 3.923.28 1.559.421 3.38.421 5.467 0 2.03-.155 3.822-.464 5.379-.309 1.559-.811 2.859-1.513 3.901a6.332 6.332 0 0 1-2.755 2.317c-1.134.498-2.528.748-4.183.748-1.738.028-3.182-.199-4.33-.681a5.918 5.918 0 0 1-2.733-2.295c-.673-1.043-1.15-2.35-1.429-3.923-.28-1.573-.422-3.389-.422-5.446 0-2.028.154-3.82.464-5.38M710.709 71.469v2.777h.084c.614-1.175 1.415-2.036 2.396-2.58.982-.543 2.102-.816 3.363-.816 1.851 0 3.272.53 4.268 1.588.994 1.058 1.493 2.777 1.493 5.158v17.592h-5.803V78.831c0-1.235-.196-2.094-.588-2.58-.393-.484-1.023-.726-1.893-.726-2.046 0-3.07 1.307-3.07 3.924v15.74h-5.8v-23.72h5.55Z"/></g><defs><clipPath id="a"><path fill="#fff" d="M0 0h736v105H0z"/></clipPath></defs></svg>